<svg width="30" height="31" viewBox="0 0 30 31" fill="none" xmlns="http://www.w3.org/2000/svg">
<path fill-rule="evenodd" clip-rule="evenodd" d="M13.8823 0.93941C11.1386 1.20242 8.82564 1.9973 6.73245 3.39658C4.47455 4.90591 2.72862 6.89599 1.54064 9.31417C0.560404 11.3094 0.0890442 13.1871 0.00984923 15.4115C-0.0791352 17.9119 0.434958 20.2917 1.54726 22.5286C2.33083 24.1043 3.13591 25.2191 4.41206 26.4955C5.70227 27.7858 6.8219 28.5916 8.40141 29.3666C9.50351 29.9073 10.2151 30.1705 11.3324 30.4508C12.4827 30.7393 13.3425 30.8605 14.5271 30.9007C17.9296 31.0165 21.2285 29.9719 23.9942 27.9031C24.8003 27.3001 26.2187 25.9152 26.7901 25.1731C29.6978 21.3968 30.6781 16.7671 29.534 12.214C29.1883 10.8384 28.4641 9.13535 27.7398 7.99503C26.5008 6.04435 24.5943 4.16625 22.7214 3.05155C20.3011 1.61106 17.6166 0.878143 14.8789 0.910447C14.4436 0.915548 13.9952 0.928622 13.8823 0.93941ZM16.2609 2.37041C20.2338 2.75706 23.7639 4.80917 26.1139 8.09798C27.9449 10.6605 28.8404 14.02 28.5335 17.1748C28.2314 20.2794 26.9306 23.0974 24.7694 25.3285C23.752 26.379 22.8283 27.0962 21.6201 27.7737C17.5424 30.0605 12.612 30.0843 8.48934 27.837C7.27515 27.1752 6.47916 26.5715 5.40759 25.4998C4.06321 24.1552 3.19254 22.8825 2.49027 21.2356C1.03458 17.8217 1.0429 13.9596 2.51337 10.5321C3.22366 8.87651 4.19651 7.47676 5.54998 6.16319C7.48026 4.28966 9.76079 3.08902 12.3582 2.57877C13.7004 2.31512 14.9869 2.24641 16.2609 2.37041ZM10.4134 7.18127C10.1117 7.226 8.91691 7.69251 8.13762 8.0699C6.9045 8.66703 6.2618 9.79838 6.2618 11.3717C6.2618 12.5001 6.55624 13.5599 7.25405 14.9428C9.49501 19.3842 14.5913 23.7629 18.4438 24.5571C18.6797 24.6057 19.17 24.6455 19.5335 24.6455C20.7027 24.6455 21.5125 24.3443 22.2097 23.6504C22.6307 23.2312 22.8807 22.7743 23.413 21.4502C23.75 20.612 23.8111 20.1111 23.6393 19.5938C23.4595 19.0524 23.0889 18.757 21.3542 17.7717C19.5979 16.7743 19.4127 16.7096 18.7696 16.8683C18.2736 16.9907 17.9161 17.2487 17.576 17.7296C17.1539 18.3266 16.6713 18.5049 16.1361 18.2617C15.4453 17.9479 12.9591 15.4625 12.6458 14.7724C12.3975 14.2256 12.563 13.7741 13.175 13.329C13.6789 12.9624 13.9145 12.6357 14.0392 12.1302C14.1966 11.4923 14.1302 11.3036 13.1345 9.55812C12.6592 8.72489 12.1576 7.91571 12.0199 7.75987C11.6169 7.30398 11.0246 7.09063 10.4134 7.18127ZM10.9665 8.68391C11.0587 8.78681 12.3859 11.0503 12.6034 11.4756C12.7679 11.7974 12.7105 11.9292 12.2682 12.2448C11.5661 12.746 11.2065 13.3659 11.1438 14.1832C11.1102 14.6214 11.2078 15.0827 11.4236 15.5058C11.8526 16.347 14.5588 19.0537 15.3998 19.4828C15.8231 19.6988 16.2842 19.7964 16.7224 19.7627C17.5277 19.7009 18.139 19.3502 18.6411 18.6619C18.808 18.4332 18.9974 18.2387 19.0712 18.2202C19.1473 18.201 19.2991 18.2361 19.4297 18.3029C19.855 18.5204 22.1181 19.8478 22.221 19.94C22.3839 20.0861 22.3442 20.3212 22.0223 21.1164C21.4556 22.5164 21.2916 22.7473 20.6529 23.0433C20.3454 23.1858 20.2164 23.2088 19.627 23.2262C19.0538 23.2431 18.8663 23.2238 18.3746 23.0973C15.1925 22.2788 10.9508 18.6382 8.80166 14.8809C7.52053 12.6411 7.29907 10.6801 8.21723 9.70475C8.44332 9.46455 8.64591 9.35732 9.69104 8.92458C10.5581 8.56554 10.8167 8.51676 10.9665 8.68391Z" fill="#F04C64"/>
</svg>
