<svg width="30" height="31" viewBox="0 0 30 31" fill="none" xmlns="http://www.w3.org/2000/svg">
<path fill-rule="evenodd" clip-rule="evenodd" d="M13.8703 0.93941C11.1246 1.20242 8.80989 1.9973 6.71515 3.39658C4.45633 4.90544 2.71081 6.89317 1.51866 9.31417C0.774573 10.8253 0.323454 12.3077 0.0736075 14.0631C-0.0245358 14.7526 -0.0245358 17.0671 0.0736075 17.7566C0.319406 19.4835 0.776098 20.9963 1.48962 22.4469C2.29688 24.0881 3.0876 25.1908 4.39303 26.4955C5.6842 27.7858 6.80467 28.5916 8.38535 29.3666C9.48827 29.9073 10.2004 30.1705 11.3185 30.4508C12.4696 30.7393 13.3301 30.8605 14.5156 30.9007C17.9206 31.0165 21.2219 29.9719 23.9897 27.9031C24.7965 27.3001 26.2159 25.9152 26.7877 25.1731C29.6975 21.3968 30.6786 16.7671 29.5336 12.214C29.1877 10.8384 28.4629 9.13535 27.7381 7.99503C26.4982 6.04435 24.5903 4.16625 22.716 3.05155C20.2939 1.61106 17.6074 0.878143 14.8676 0.910447C14.432 0.915548 13.9833 0.928622 13.8703 0.93941ZM16.2507 2.37041C20.2265 2.75706 23.7593 4.80917 26.111 8.09798C27.9434 10.6605 28.8396 14.02 28.5324 17.1748C28.2301 20.2794 26.9283 23.0974 24.7655 25.3285C23.7474 26.379 22.8229 27.0962 21.6139 27.7737C17.5332 30.0605 12.5991 30.0843 8.47334 27.837C7.25825 27.1752 6.46167 26.5715 5.38931 25.4998C4.04393 24.1552 3.1726 22.8825 2.46982 21.2356C1.01304 17.8217 1.02137 13.9596 2.49293 10.5321C3.20375 8.87651 4.17733 7.47676 5.5318 6.16319C7.46352 4.28966 9.74574 3.08902 12.3451 2.57877C13.6883 2.31512 14.9757 2.24641 16.2507 2.37041ZM7.21209 9.89213C6.84544 10.0636 6.4727 10.4633 6.32662 10.842C6.21992 11.1184 6.21481 11.3513 6.21481 15.9392V20.7467L6.35314 21.0524C6.52537 21.4331 6.94787 21.8351 7.33105 21.9827C7.61299 22.0914 7.86894 22.0951 14.9849 22.0951C22.101 22.0951 22.3569 22.0914 22.6388 21.9827C23.022 21.8351 23.4445 21.4331 23.6167 21.0524L23.7551 20.7467V15.9392C23.7551 11.3513 23.75 11.1184 23.6433 10.842C23.4972 10.4633 23.1244 10.0636 22.7578 9.89213L22.4645 9.75505H14.9849H7.5054L7.21209 9.89213ZM20.8777 11.2126C20.6445 11.4282 15.029 15.8512 14.9882 15.8512C14.9476 15.8512 9.32906 11.4306 9.09224 11.2123C9.06032 11.1829 11.576 11.161 14.9849 11.161C18.4109 11.161 20.9097 11.1828 20.8777 11.2126ZM12.5504 15.7543C13.712 16.6764 14.7349 17.4468 14.8236 17.4665C14.9124 17.4861 15.0584 17.486 15.1483 17.4663C15.2401 17.4461 16.8393 16.2174 18.8 14.6605L22.2885 11.8906L22.3036 16.1989C22.3169 20.0158 22.3083 20.5175 22.2281 20.5976C22.1478 20.678 21.3463 20.6896 15.0562 20.7022C9.42145 20.7135 7.94473 20.7012 7.82805 20.6419L7.68139 20.5673L7.66637 16.2161L7.6513 11.8647L9.04496 12.9713C9.81145 13.5799 11.3889 14.8323 12.5504 15.7543Z" fill="#F04C64"/>
</svg>
