<svg width="128" height="128" viewBox="0 0 128 128" fill="none" xmlns="http://www.w3.org/2000/svg">
<g filter="url(#filter0_d_48_22960)">
<circle cx="64" cy="60" r="40" fill="white"/>
</g>
<path fill-rule="evenodd" clip-rule="evenodd" d="M57.262 35.3801C56.2119 35.8977 55.5366 36.9374 55.4128 38.2273C55.2843 39.5638 55.7253 40.5083 56.894 41.3999C57.691 42.0076 57.8853 42.0453 60.6561 42.1275C62.3093 42.1766 63.8407 42.1122 64.1829 41.9791C64.9225 41.692 65.1462 40.9762 64.6968 40.3347C64.3912 39.8983 64.1257 39.8564 61.6548 39.8532C59.947 39.8511 58.7342 39.7423 58.3691 39.5585C57.6628 39.2031 57.4903 38.222 58.0378 37.6745C58.3879 37.3245 59.1384 37.293 65.6321 37.356L72.8381 37.4259L73.9368 38.0718C74.6332 38.4811 75.8366 39.6684 77.2219 41.3128C78.4243 42.7403 79.7677 44.1481 80.2074 44.4416C81.2774 45.156 83.2151 45.8758 84.0686 45.8758H84.7606V49.3752V52.8746L81.6774 52.7843C77.3913 52.6591 76.8114 52.3542 71.9135 47.6486C68.3025 44.1795 68.2164 44.0747 68.4451 43.4209C68.6129 42.9408 68.856 42.7299 69.301 42.6782C69.8084 42.6192 70.3513 43.0007 72.2651 44.7618C75.1775 47.4412 75.7803 47.8422 76.3989 47.5109C76.9441 47.2194 77.2244 46.4779 76.9614 46.0237C76.7038 45.5785 71.6338 40.9656 71.0192 40.6172C70.3314 40.2273 68.6646 40.2511 67.8698 40.6623C66.4116 41.4163 65.7268 43.0954 66.2139 44.7217C66.419 45.4061 67.3052 46.4048 70.1216 49.1259C75.7572 54.5706 76.4461 54.9253 81.705 55.0864C84.843 55.1827 85.0335 55.2156 85.3623 55.7173C85.9711 56.6465 86.9441 56.8722 90.3385 56.8722C92.6655 56.8722 93.5855 56.7894 93.8689 56.5546C94.2037 56.277 94.2523 55.6126 94.2523 51.3043C94.2523 46.0596 94.1673 45.6443 93.0947 45.6443C92.0541 45.6443 91.9372 46.1263 91.9372 50.4146V54.4576L89.5643 54.3917L87.1914 54.3257V49.3483V44.371L88.1551 44.2423C89.3039 44.089 89.8537 43.6869 89.8537 43C89.8537 42.1974 89.393 41.9402 87.956 41.9402C86.7474 41.9402 86.5249 42.0208 85.7172 42.7505C84.6812 43.6862 83.9517 43.77 82.5613 43.1128C81.339 42.5349 80.7748 42.0069 78.6218 39.4258C76.5857 36.9844 75.5507 36.1463 73.731 35.4655C72.5643 35.0291 71.9526 34.9955 65.2476 35.0004C59.0662 35.0048 57.9121 35.0597 57.262 35.3801ZM92.1768 42.3879C91.7986 43.0949 91.8923 43.5204 92.516 43.9293C93.0522 44.2805 93.1373 44.2805 93.6735 43.9293C94.6581 43.2843 94.2669 41.9402 93.0947 41.9402C92.6611 41.9402 92.3301 42.1018 92.1768 42.3879ZM59.8044 43.3755C59.6516 43.5283 59.5266 43.8721 59.5266 44.1395C59.5266 44.7946 59.9563 45.1813 60.6841 45.1813C61.412 45.1813 61.8417 44.7946 61.8417 44.1395C61.8417 43.4843 61.412 43.0977 60.6841 43.0977C60.3531 43.0977 59.9572 43.2227 59.8044 43.3755ZM56.5252 44.703C56.1469 45.41 56.2407 45.8355 56.8643 46.2443C57.4005 46.5955 57.4857 46.5955 58.0218 46.2443C59.0064 45.5994 58.6152 44.2552 57.4431 44.2552C57.0095 44.2552 56.6784 44.4168 56.5252 44.703ZM53.6325 46.6395C53.2156 47.2757 53.3552 47.8616 54.0064 48.21C54.6463 48.5524 55.3345 48.2549 55.5089 47.5609C55.8286 46.2867 54.3421 45.5565 53.6325 46.6395ZM51.439 48.8082C50.9107 49.1784 50.8077 50.0285 51.2388 50.4596C51.7326 50.9534 52.7963 50.7959 53.0732 50.1878C53.5721 49.093 52.4204 48.1209 51.439 48.8082ZM49.3867 51.7097C49.2339 51.8625 49.1089 52.2583 49.1089 52.5894C49.1089 53.3172 49.4955 53.7469 50.1507 53.7469C50.8059 53.7469 51.1925 53.3172 51.1925 52.5894C51.1925 51.8615 50.8059 51.4319 50.1507 51.4319C49.8833 51.4319 49.5395 51.5569 49.3867 51.7097ZM58.9523 54.1169C56.9254 54.8588 55.5149 56.9398 55.5084 59.1979C55.5022 61.3085 56.133 62.254 59.1819 64.7045C62.9242 67.7124 64.3963 68.7947 64.7452 68.7947C64.9163 68.7947 66.7799 67.4244 68.8863 65.7495C72.1047 63.1907 72.8094 62.5177 73.2981 61.537C74.386 59.354 73.9329 56.7382 72.2043 55.2202C70.2888 53.5386 67.8573 53.3358 65.6981 54.678L64.5558 55.3881L64.0602 54.9225C62.9128 53.8446 60.6649 53.49 58.9523 54.1169ZM48.0459 55.2517C47.6947 55.7879 47.6947 55.8731 48.0459 56.4092C48.6471 57.3267 50.0349 57.0095 50.0349 55.9545C50.0349 54.729 48.698 54.2565 48.0459 55.2517ZM62.0597 56.4023C62.4216 56.5893 63.0504 57.1623 63.4566 57.6755C64.4368 58.9132 65.1017 58.9197 65.9092 57.6996C66.5248 56.7692 67.661 56.062 68.5398 56.062C69.4482 56.062 70.6242 56.7213 71.0958 57.495C71.6584 58.4173 71.7014 59.8158 71.1935 60.6564C70.8817 61.172 65.405 65.7428 64.8188 65.9764C64.5651 66.0775 58.5592 61.3185 58.2112 60.7404C57.3588 59.3241 57.8079 57.5651 59.2715 56.5875C60.1799 55.9805 61.1231 55.918 62.0597 56.4023ZM80.1768 57.0343C79.5274 57.6836 80.0166 58.84 80.9408 58.84C81.5612 58.84 81.9825 58.4187 81.9825 57.7982C81.9825 57.1778 81.5612 56.7565 80.9408 56.7565C80.6734 56.7565 80.3296 56.8815 80.1768 57.0343ZM47.64 58.5689C47.1421 59.1192 47.155 59.6019 47.6803 60.0774C48.2118 60.5585 48.7397 60.5652 49.2082 60.0969C49.6729 59.6322 49.6729 58.9738 49.2082 58.5092C48.7249 58.026 48.1102 58.0492 47.64 58.5689ZM79.9261 60.7414C79.6453 61.5002 79.8791 62.0672 80.5412 62.2334C81.2697 62.4163 81.8429 62.0788 81.9425 61.4081C82.0474 60.6999 81.5869 60.229 80.7891 60.229C80.3055 60.229 80.0622 60.3735 79.9261 60.7414ZM47.8715 62.0415C47.3736 62.5918 47.3865 63.0745 47.9118 63.55C48.4621 64.0479 48.9448 64.035 49.4203 63.5097C49.9014 62.9782 49.9081 62.4503 49.4397 61.9818C48.9564 61.4986 48.3417 61.5218 47.8715 62.0415ZM35.6817 63.2925L35.1029 63.5991L35.0404 68.375C34.9865 72.4893 35.0288 73.2021 35.3462 73.5195C35.8153 73.9883 36.4723 73.9901 36.9385 73.5241C37.2397 73.2227 37.3022 72.505 37.3022 69.3489V65.5374L39.6751 65.6034L42.048 65.6694V70.644V75.6183L40.96 75.7741C40.3615 75.8595 39.7751 75.9894 39.6568 76.0625C39.2621 76.3066 39.2015 77.0932 39.5402 77.5768C39.8147 77.9688 40.1231 78.0549 41.2503 78.0549C42.4967 78.0549 42.7095 77.9789 43.5223 77.2446C44.5582 76.3089 45.2877 76.2251 46.6781 76.8823C47.9005 77.4601 48.4647 77.9882 50.6176 80.5692C52.6537 83.0107 53.6888 83.8487 55.5084 84.5296C56.6736 84.9655 57.2945 85 63.9567 85C70.1117 85 71.2618 84.9458 71.9397 84.6243C73.0152 84.1138 73.7009 83.0757 73.8266 81.7677C73.9549 80.4329 73.5143 79.4867 72.351 78.5996C71.5723 78.0056 71.3345 77.9565 68.8201 77.8713C67.3031 77.8199 65.8599 77.8829 65.5196 78.0153C64.7799 78.3033 64.5565 79.0191 65.0056 79.6604C65.3082 80.0923 65.5793 80.1386 67.8161 80.1419C69.3378 80.144 70.5145 80.2574 70.8703 80.4366C71.5767 80.7919 71.7491 81.7731 71.2016 82.3206C70.8516 82.6706 70.101 82.7021 63.6073 82.6391L56.4013 82.5692L55.3026 81.9233C54.6062 81.514 53.4029 80.3266 52.0175 78.6822C50.8151 77.2548 49.4717 75.847 49.0321 75.5535C47.9621 74.839 46.0244 74.1193 45.1708 74.1193H44.4788V70.6199V67.1205L47.562 67.2107C51.8481 67.336 52.428 67.6409 57.3259 72.3464C60.9369 75.8155 61.0231 75.9204 60.7943 76.5742C60.6265 77.0543 60.3834 77.2652 59.9385 77.3168C59.431 77.3759 58.8881 76.9944 56.9743 75.2333C54.062 72.5539 53.4591 72.1529 52.8405 72.4842C52.2954 72.7757 52.015 73.5172 52.278 73.9714C52.5357 74.4165 57.6056 79.0295 58.2202 79.3779C58.908 79.7678 60.5749 79.7439 61.3696 79.3328C62.8279 78.5788 63.5127 76.8997 63.0256 75.2733C62.8205 74.589 61.9343 73.5903 59.1178 70.8692C53.4823 65.4245 52.7933 65.0698 47.5345 64.9087C44.4205 64.8131 44.2038 64.7762 43.885 64.2901C43.2956 63.3905 42.4446 63.1661 39.27 63.0738C37.0742 63.0096 36.1039 63.0689 35.6817 63.2925ZM79.6096 63.7201C79.1443 63.9912 79.0658 65.0909 79.4823 65.5073C79.6351 65.6601 79.9789 65.7851 80.2463 65.7851C80.5136 65.7851 80.8574 65.6601 81.0102 65.5073C81.4503 65.0672 81.3478 63.9813 80.8403 63.7097C80.293 63.4169 80.1277 63.4182 79.6096 63.7201ZM78.2206 66.9612C77.7553 67.2323 77.6768 68.3319 78.0933 68.7484C78.56 69.2151 79.3983 69.0676 79.8046 68.4474C80.1557 67.9113 80.1557 67.8261 79.8046 67.2899C79.4038 66.6783 78.8894 66.5716 78.2206 66.9612ZM76.2331 69.8589C75.6271 70.2835 75.618 71.2667 76.2169 71.6413C77.3694 72.3624 78.6429 70.7632 77.5932 69.9131C76.9557 69.3968 76.8962 69.3945 76.2331 69.8589ZM73.7 72.1647C73.1402 72.5566 73.0212 73.3995 73.4632 73.8415C73.9033 74.2816 74.9893 74.179 75.2608 73.6716C75.6011 73.0354 75.5627 72.7925 75.0374 72.2673C74.4799 71.7098 74.3621 71.7008 73.7 72.1647ZM70.5395 74.02C69.845 74.7147 70.3437 75.9713 71.3139 75.9713C71.8014 75.9713 72.4909 75.2696 72.4909 74.7735C72.4909 74.3281 71.7591 73.6563 71.2738 73.6563C71.0701 73.6563 70.7398 73.82 70.5395 74.02ZM67.2126 75.0916C67.0598 75.2444 66.9348 75.5882 66.9348 75.8556C66.9348 76.123 67.0598 76.4667 67.2126 76.6195C67.3654 76.7723 67.7091 76.8973 67.9765 76.8973C68.6375 76.8973 69.0183 76.4663 69.0183 75.7183C69.0183 74.8657 67.8455 74.4587 67.2126 75.0916ZM35.4226 76.1785C34.9561 76.5563 34.9131 76.7094 35.1131 77.2782C35.308 77.8326 35.4745 77.9391 36.1447 77.9391C36.8149 77.9391 36.9813 77.8326 37.1763 77.2782C37.3763 76.7094 37.3332 76.5563 36.8668 76.1785C36.5688 75.9373 36.2438 75.7398 36.1447 75.7398C36.0456 75.7398 35.7206 75.9373 35.4226 76.1785Z" fill="#EE5066"/>
<defs>
<filter id="filter0_d_48_22960" x="0" y="0" width="128" height="128" filterUnits="userSpaceOnUse" color-interpolation-filters="sRGB">
<feFlood flood-opacity="0" result="BackgroundImageFix"/>
<feColorMatrix in="SourceAlpha" type="matrix" values="0 0 0 0 0 0 0 0 0 0 0 0 0 0 0 0 0 0 127 0" result="hardAlpha"/>
<feOffset dy="4"/>
<feGaussianBlur stdDeviation="12"/>
<feComposite in2="hardAlpha" operator="out"/>
<feColorMatrix type="matrix" values="0 0 0 0 0 0 0 0 0 0 0 0 0 0 0 0 0 0 0.18 0"/>
<feBlend mode="normal" in2="BackgroundImageFix" result="effect1_dropShadow_48_22960"/>
<feBlend mode="normal" in="SourceGraphic" in2="effect1_dropShadow_48_22960" result="shape"/>
</filter>
</defs>
</svg>
