<svg width="30" height="31" viewBox="0 0 30 31" fill="none" xmlns="http://www.w3.org/2000/svg">
<path fill-rule="evenodd" clip-rule="evenodd" d="M11.7125 0.362443C9.16472 0.914706 6.46258 2.45676 4.40877 4.53013C-1.47658 10.4727 -1.46861 19.9723 4.42683 25.9556C8.06744 29.65 13.1309 31.1845 18.1329 30.109C24.9164 28.6505 30 22.2764 30 15.229C30 9.60881 26.6843 4.1414 21.7906 1.69335C18.5457 0.0698858 15.1385 -0.380018 11.7125 0.362443ZM10.3638 7.88608C10.8158 8.42811 10.9021 9.54311 10.5446 10.2208C10.2352 10.8074 9.01882 11.2173 8.3515 10.9597C7.22819 10.5262 6.73796 9.157 7.36095 8.1922C8.09442 7.05626 9.54822 6.90795 10.3638 7.88608ZM21.231 12.8215C22.5952 13.6656 22.8375 14.6156 22.8461 19.1568L22.8541 23.2035L21.2927 23.2735L19.731 23.3433L19.6507 19.7869C19.5609 15.8196 19.3463 15.229 17.9938 15.229C16.2862 15.229 15.9346 16.0884 15.9346 20.2634V23.3226H14.2927H12.6508V17.9666V12.6105H14.2927C15.9189 12.6105 15.9346 12.6167 15.9346 13.2511C15.9346 13.801 15.9761 13.8398 16.2278 13.5239C17.2085 12.294 19.7924 11.9312 21.231 12.8215ZM10.5397 17.9775V23.3442L8.95643 23.274L7.37314 23.2035L7.31005 17.907L7.24695 12.6105H8.89333H10.5397V17.9775Z" fill="#FFDDE7"/>
</svg>
