<svg width="30" height="31" viewBox="0 0 30 31" fill="none" xmlns="http://www.w3.org/2000/svg">
<path fill-rule="evenodd" clip-rule="evenodd" d="M13.5745 0.0520818C8.87861 0.547291 4.7668 3.13695 2.26673 7.17378C-1.27773 12.897 -0.60857 20.4956 3.8759 25.4462C6.36834 28.1977 9.45506 29.8341 13.1631 30.3698C13.8601 30.4705 16.1653 30.4688 16.8891 30.3672C20.541 29.8541 23.6252 28.2213 26.1134 25.4838C28.1591 23.2332 29.4717 20.3502 29.9263 17.1092C30.0246 16.4086 30.0246 14.0581 29.9263 13.3576C29.5793 10.883 28.8071 8.77933 27.5243 6.81321C26.9787 5.97702 26.4338 5.30239 25.6747 4.52319C23.329 2.11545 20.4337 0.633637 17.0945 0.131877C16.3747 0.0236769 14.2914 -0.0234858 13.5745 0.0520818ZM17.3154 4.03704C21.2674 4.81838 23.8805 8.06397 23.6689 11.9284C23.6182 12.8546 23.4952 13.6741 23.2844 14.489C22.6576 16.9126 21.2874 18.7631 19.4467 19.6718C18.5785 20.1004 17.9142 20.2511 16.8598 20.2585C16.0148 20.2644 15.9591 20.2571 15.4655 20.0783C14.7777 19.8289 14.3661 19.5674 13.9456 19.1127C13.7532 18.9047 13.5889 18.7439 13.5805 18.7554C13.5721 18.7671 13.3716 19.5536 13.1351 20.5034C12.6244 22.5534 12.4731 23.0147 12.0049 23.949C11.4576 25.041 10.4086 26.6072 10.2244 26.6072C10.177 26.6072 10.1158 26.5469 10.0883 26.4732C9.90253 25.9758 9.81304 23.2286 9.95305 22.3197C9.99084 22.074 10.4099 20.1947 10.8842 18.1435L11.7466 14.4138L11.6219 14.0283C11.4155 13.39 11.356 12.8937 11.3892 12.0836C11.431 11.0645 11.6238 10.4794 12.1339 9.82454C12.4387 9.43318 12.8828 9.13514 13.3589 9.0024C13.6718 8.91522 13.7906 8.90915 14.1078 8.96429C15.45 9.19761 15.8572 10.4188 15.2848 12.4941C15.1719 12.9035 14.9478 13.6806 14.7869 14.221C14.2902 15.8892 14.2658 16.2491 14.6023 16.9428C14.9101 17.5774 15.5175 17.962 16.2971 18.016C17.2884 18.0847 18.1618 17.6428 18.924 16.6866C19.592 15.8486 20.0923 14.6242 20.361 13.17C20.4664 12.5997 20.492 12.2416 20.4946 11.3031C20.4974 10.274 20.4829 10.0901 20.3674 9.68597C19.8589 7.90706 18.7684 6.82637 16.9667 6.31579C16.4222 6.16156 16.3238 6.15263 15.1875 6.15507C14.0756 6.15745 13.9415 6.16948 13.4151 6.31454C12.3474 6.60872 11.486 7.09511 10.7191 7.83667C9.60245 8.91636 8.95025 10.3907 8.86951 12.0177C8.81225 13.173 9.0314 13.9829 9.6251 14.8093C9.80242 15.0561 9.90652 15.2628 9.90652 15.3679C9.90652 15.6427 9.60456 16.7791 9.49513 16.9163C9.24769 17.2264 8.46493 16.8838 7.7648 16.1588C6.95822 15.3237 6.54202 14.3154 6.38136 12.8073C6.08481 10.0231 7.50362 7.11327 9.9652 5.45734C11.1809 4.63949 12.6789 4.111 14.3136 3.9233C15.0824 3.83499 16.5807 3.8918 17.3154 4.03704Z" fill="#FFDDE7"/>
</svg>
