<svg width="30" height="31" viewBox="0 0 30 31" fill="none" xmlns="http://www.w3.org/2000/svg">
<path fill-rule="evenodd" clip-rule="evenodd" d="M11.7041 0.364501C6.22089 1.55956 1.47802 6.41717 0.322516 12.0209C-1.0754 18.8012 2.16724 25.7064 8.18412 28.7626C10.1706 29.7715 12.67 30.4659 14.3441 30.4738L15.2241 30.4778V24.524V18.5702H13.5815H11.9388V16.6649V14.7597H13.5815H15.2241V13.079C15.2241 10.6654 15.6088 9.36814 16.6322 8.32955C17.8383 7.10544 20.0362 6.60317 22.2348 7.04947L22.9682 7.19832V8.83562V10.4729H21.6125C19.5348 10.4729 19.2135 10.8097 19.2135 12.9871V14.7597H21.0068H22.8004L22.6495 16.2236C22.5667 17.0286 22.4988 17.8859 22.4988 18.1289C22.4988 18.5166 22.2991 18.5702 20.8562 18.5702H19.2135V24.1668C19.2135 28.7746 19.271 29.7634 19.5383 29.7634C19.7171 29.7634 20.7466 29.3152 21.8263 28.7674C26.6816 26.3042 30 20.8105 30 15.236C30 9.6132 26.6827 4.14328 21.7869 1.69411C18.5386 0.0689527 15.1251 -0.381158 11.7041 0.364501Z" fill="#FFDDE7"/>
</svg>
