<svg width="30" height="32" viewBox="0 0 30 32" fill="none" xmlns="http://www.w3.org/2000/svg">
<path fill-rule="evenodd" clip-rule="evenodd" d="M11.7655 0.941696C9.16951 1.51334 6.45614 3.05427 4.44505 5.09905C-1.43912 11.0821 -1.48757 20.6014 4.33663 26.4697C7.21274 29.3675 10.3629 30.832 14.1889 31.0497C21.0531 31.4402 27.3486 26.9897 29.4458 20.2639C30.1847 17.8945 30.1847 13.8021 29.4458 11.4327C27.0765 3.83428 19.3778 -0.734088 11.7655 0.941696ZM19.7374 9.27885C20.8711 9.94429 21.0068 9.96267 22.0249 9.59128L23.0508 9.21679L22.6599 9.84739C22.4447 10.1942 22.1023 10.6124 21.8988 10.7763C21.4569 11.1329 21.8257 11.1647 22.662 10.842C23.4489 10.5381 23.4243 10.7658 22.5726 11.6599C22.0256 12.2344 21.8254 12.739 21.6218 14.0582C21.0726 17.6143 19.0608 20.432 16.0311 21.8886C14.5614 22.5951 14.2656 22.6508 11.9762 22.6508C9.86119 22.6508 9.32402 22.567 8.23299 22.0672C7.53236 21.7464 7.0561 21.4578 7.17464 21.4261C7.29317 21.3943 7.97475 21.2514 8.68949 21.1086C9.40422 20.9659 10.3518 20.6251 10.7954 20.3515L11.6016 19.8539L10.6717 19.5317C9.70244 19.1958 8.68361 18.2187 8.68361 17.6251C8.68361 17.427 8.90868 17.2799 9.21278 17.2795C9.68574 17.2787 9.66222 17.2293 8.99029 16.8136C8.13585 16.2849 7.61444 15.5607 7.37408 14.5692C7.21133 13.8981 7.22191 13.8897 8.00485 14.0599L8.8012 14.2332L8.28779 13.6684C7.34703 12.6338 7.07045 11.4067 7.5119 10.2283L7.75109 9.58961L8.78191 10.5539C9.97644 11.6712 11.1086 12.2991 12.901 12.8385C14.6753 13.3722 14.7225 13.3562 14.8542 12.1705C15.0678 10.2481 16.4599 8.95257 18.3263 8.93944C18.7791 8.9361 19.4141 9.08886 19.7374 9.27885Z" fill="#F04C64"/>
</svg>
