<svg width="30" height="32" viewBox="0 0 30 32" fill="none" xmlns="http://www.w3.org/2000/svg">
<path fill-rule="evenodd" clip-rule="evenodd" d="M13.5745 0.648029C8.87861 1.14324 4.7668 3.7329 2.26673 7.76972C-1.27773 13.493 -0.60857 21.0915 3.8759 26.0421C6.36834 28.7936 9.45506 30.4301 13.1631 30.9658C13.8601 31.0665 16.1653 31.0648 16.8891 30.9631C20.541 30.4501 23.6252 28.8173 26.1134 26.0798C28.1591 23.8291 29.4717 20.9462 29.9263 17.7051C30.0246 17.0046 30.0246 14.6541 29.9263 13.9535C29.5793 11.479 28.8071 9.37528 27.5243 7.40915C26.9787 6.57297 26.4338 5.89834 25.6747 5.11914C23.329 2.7114 20.4337 1.22958 17.0945 0.727825C16.3747 0.619624 14.2914 0.572461 13.5745 0.648029ZM17.3154 4.63298C21.2674 5.41433 23.8805 8.65992 23.6689 12.5243C23.6182 13.4505 23.4952 14.27 23.2844 15.085C22.6576 17.5085 21.2874 19.359 19.4467 20.2677C18.5785 20.6964 17.9142 20.847 16.8598 20.8544C16.0148 20.8603 15.9591 20.8531 15.4655 20.6742C14.7777 20.4249 14.3661 20.1633 13.9456 19.7087C13.7532 19.5006 13.5889 19.3398 13.5805 19.3514C13.5721 19.363 13.3716 20.1496 13.1351 21.0994C12.6244 23.1493 12.4731 23.6107 12.0049 24.545C11.4576 25.637 10.4086 27.2032 10.2244 27.2032C10.177 27.2032 10.1158 27.1429 10.0883 27.0692C9.90253 26.5717 9.81304 23.8246 9.95305 22.9156C9.99084 22.67 10.4099 20.7907 10.8842 18.7394L11.7466 15.0097L11.6219 14.6243C11.4155 13.986 11.356 13.4896 11.3892 12.6796C11.431 11.6605 11.6238 11.0753 12.1339 10.4205C12.4387 10.0291 12.8828 9.73108 13.3589 9.59835C13.6718 9.51117 13.7906 9.5051 14.1078 9.56024C15.45 9.79355 15.8572 11.0148 15.2848 13.0901C15.1719 13.4995 14.9478 14.2766 14.7869 14.817C14.2902 16.4851 14.2658 16.845 14.6023 17.5387C14.9101 18.1733 15.5175 18.558 16.2971 18.612C17.2884 18.6807 18.1618 18.2387 18.924 17.2825C19.592 16.4446 20.0923 15.2202 20.361 13.7659C20.4664 13.1956 20.492 12.8375 20.4946 11.8991C20.4974 10.8699 20.4829 10.686 20.3674 10.2819C19.8589 8.50301 18.7684 7.42231 16.9667 6.91174C16.4222 6.75751 16.3238 6.74858 15.1875 6.75102C14.0756 6.7534 13.9415 6.76543 13.4151 6.91049C12.3474 7.20466 11.486 7.69106 10.7191 8.43262C9.60245 9.5123 8.95025 10.9867 8.86951 12.6137C8.81225 13.7689 9.0314 14.5788 9.6251 15.4052C9.80242 15.652 9.90652 15.8587 9.90652 15.9638C9.90652 16.2387 9.60456 17.3751 9.49513 17.5123C9.24769 17.8224 8.46493 17.4797 7.7648 16.7548C6.95822 15.9196 6.54202 14.9114 6.38136 13.4032C6.08481 10.619 7.50362 7.70922 9.9652 6.05329C11.1809 5.23544 12.6789 4.70694 14.3136 4.51925C15.0824 4.43093 16.5807 4.48774 17.3154 4.63298Z" fill="#F04C64"/>
</svg>
