<svg width="30" height="32" viewBox="0 0 30 32" fill="none" xmlns="http://www.w3.org/2000/svg">
<path fill-rule="evenodd" clip-rule="evenodd" d="M11.7041 0.960449C6.22089 2.1555 1.47802 7.01312 0.322516 12.6169C-1.0754 19.3971 2.16724 26.3024 8.18412 29.3586C10.1706 30.3674 12.67 31.0619 14.3441 31.0697L15.2241 31.0738V25.1199V19.1661H13.5815H11.9388V17.2609V15.3556H13.5815H15.2241V13.675C15.2241 11.2613 15.6088 9.96408 16.6322 8.9255C17.8383 7.70139 20.0362 7.19912 22.2348 7.64542L22.9682 7.79427V9.43157V11.0689H21.6125C19.5348 11.0689 19.2135 11.4056 19.2135 13.5831V15.3556H21.0068H22.8004L22.6495 16.8196C22.5667 17.6245 22.4988 18.4819 22.4988 18.7248C22.4988 19.1125 22.2991 19.1661 20.8562 19.1661H19.2135V24.7627C19.2135 29.3705 19.271 30.3593 19.5383 30.3593C19.7171 30.3593 20.7466 29.9111 21.8263 29.3634C26.6816 26.9001 30 21.4064 30 15.8319C30 10.2091 26.6827 4.73923 21.7869 2.29006C18.5386 0.6649 15.1251 0.21479 11.7041 0.960449Z" fill="#F04C64"/>
</svg>
