<svg width="30" height="32" viewBox="0 0 30 32" fill="none" xmlns="http://www.w3.org/2000/svg">
<path fill-rule="evenodd" clip-rule="evenodd" d="M11.7125 0.95839C9.16472 1.51065 6.46258 3.05271 4.40877 5.12607C-1.47658 11.0686 -1.46861 20.5683 4.42683 26.5515C8.06744 30.246 13.1309 31.7804 18.1329 30.7049C24.9164 29.2464 30 22.8723 30 15.825C30 10.2048 26.6843 4.73735 21.7906 2.2893C18.5457 0.665833 15.1385 0.215929 11.7125 0.95839ZM10.3638 8.48203C10.8158 9.02405 10.9021 10.1391 10.5446 10.8168C10.2352 11.4033 9.01882 11.8132 8.3515 11.5557C7.22819 11.1222 6.73796 9.75295 7.36095 8.78815C8.09442 7.6522 9.54822 7.5039 10.3638 8.48203ZM21.231 13.4174C22.5952 14.2615 22.8375 15.2115 22.8461 19.7527L22.8541 23.7995L21.2927 23.8695L19.731 23.9392L19.6507 20.3828C19.5609 16.4156 19.3463 15.825 17.9938 15.825C16.2862 15.825 15.9346 16.6843 15.9346 20.8594V23.9185H14.2927H12.6508V18.5625V13.2065H14.2927C15.9189 13.2065 15.9346 13.2127 15.9346 13.8471C15.9346 14.397 15.9761 14.4358 16.2278 14.1199C17.2085 12.8899 19.7924 12.5271 21.231 13.4174ZM10.5397 18.5735V23.9402L8.95643 23.8699L7.37314 23.7995L7.31005 18.503L7.24695 13.2065H8.89333H10.5397V18.5735Z" fill="#F04C64"/>
</svg>
