<svg width="30" height="31" viewBox="0 0 30 31" fill="none" xmlns="http://www.w3.org/2000/svg">
<path fill-rule="evenodd" clip-rule="evenodd" d="M11.7655 0.345749C9.16951 0.917392 6.45614 2.45832 4.44505 4.50311C-1.43912 10.4861 -1.48757 20.0055 4.33662 25.8737C7.21274 28.7715 10.3629 30.2361 14.1889 30.4538C21.0531 30.8443 27.3486 26.3938 29.4458 19.668C30.1847 17.2986 30.1847 13.2062 29.4458 10.8368C27.0765 3.23833 19.3778 -1.33004 11.7655 0.345749ZM19.7374 8.6829C20.8711 9.34835 21.0068 9.36673 22.0249 8.99534L23.0508 8.62084L22.6599 9.25144C22.4447 9.59825 22.1023 10.0164 21.8988 10.1804C21.4569 10.537 21.8257 10.5687 22.662 10.246C23.4489 9.94219 23.4243 10.1699 22.5726 11.064C22.0256 11.6385 21.8254 12.1431 21.6218 13.4623C21.0726 17.0184 19.0608 19.836 16.0311 21.2927C14.5614 21.9992 14.2656 22.0548 11.9762 22.0548C9.86119 22.0548 9.32402 21.971 8.23299 21.4712C7.53236 21.1504 7.0561 20.8619 7.17464 20.8301C7.29317 20.7984 7.97475 20.6554 8.68949 20.5127C9.40422 20.37 10.3518 20.0291 10.7954 19.7556L11.6016 19.2579L10.6717 18.9357C9.70244 18.5999 8.68361 17.6227 8.68361 17.0291C8.68361 16.831 8.90868 16.684 9.21278 16.6835C9.68574 16.6828 9.66222 16.6334 8.99029 16.2176C8.13585 15.6889 7.61444 14.9648 7.37408 13.9733C7.21133 13.3021 7.22191 13.2938 8.00485 13.4639L8.8012 13.6372L8.28779 13.0725C7.34703 12.0378 7.07045 10.8107 7.5119 9.63238L7.75109 8.99367L8.78191 9.95794C9.97644 11.0752 11.1086 11.7032 12.901 12.2426C14.6753 12.7763 14.7225 12.7603 14.8542 11.5745C15.0678 9.65219 16.4599 8.35662 18.3263 8.3435C18.7791 8.34015 19.4141 8.49291 19.7374 8.6829Z" fill="#FFDDE7"/>
</svg>
